<?xml version="1.0" encoding="UTF-8" standalone="no"?>
<!DOCTYPE svg PUBLIC "-//W3C//DTD SVG 1.1//EN"
 "http://www.w3.org/Graphics/SVG/1.1/DTD/svg11.dtd">
<!-- Generated by graphviz version 8.0.1 (20230327.1645)
 -->
<!-- Title: G Pages: 1 -->
<svg width="1017pt" height="914pt"
 viewBox="0.00 0.00 1017.00 914.00" xmlns="http://www.w3.org/2000/svg" xmlns:xlink="http://www.w3.org/1999/xlink">
<g id="graph0" class="graph" transform="scale(1 1) rotate(0) translate(4 910)">
<title>G</title>
<polygon fill="white" stroke="none" points="-4,4 -4,-910 1013,-910 1013,4 -4,4"/>
<!-- 0 -->
<g id="node1" class="node">
<title>0</title>
<ellipse fill="none" stroke="black" cx="506" cy="-888" rx="27" ry="18"/>
<text text-anchor="middle" x="506" y="-884.3" font-family="Times,serif" font-size="14.00">839</text>
</g>
<!-- 1 -->
<g id="node2" class="node">
<title>1</title>
<ellipse fill="none" stroke="black" cx="434" cy="-801" rx="27" ry="18"/>
<text text-anchor="middle" x="434" y="-797.3" font-family="Times,serif" font-size="14.00">509</text>
</g>
<!-- 0&#45;&gt;1 -->
<g id="edge49" class="edge">
<title>0&#45;&gt;1</title>
<path fill="none" stroke="black" d="M493.13,-871.8C482.17,-858.87 466.26,-840.09 453.7,-825.26"/>
<polygon fill="black" stroke="black" points="455.89,-823.43 446.76,-818.06 450.55,-827.96 455.89,-823.43"/>
<text text-anchor="middle" x="478.5" y="-840.8" font-family="Times,serif" font-size="14.00">0</text>
</g>
<!-- 50 -->
<g id="node51" class="node">
<title>50</title>
<ellipse fill="none" stroke="black" cx="611" cy="-801" rx="27" ry="18"/>
<text text-anchor="middle" x="611" y="-797.3" font-family="Times,serif" font-size="14.00">330</text>
</g>
<!-- 0&#45;&gt;50 -->
<g id="edge76" class="edge">
<title>0&#45;&gt;50</title>
<path fill="none" stroke="black" d="M522.41,-873.72C539.41,-859.95 566.21,-838.26 585.89,-822.33"/>
<polygon fill="black" stroke="black" points="587.79,-824.48 593.36,-815.47 583.39,-819.04 587.79,-824.48"/>
<text text-anchor="middle" x="568.5" y="-840.8" font-family="Times,serif" font-size="14.00">1</text>
</g>
<!-- 2 -->
<g id="node3" class="node">
<title>2</title>
<ellipse fill="none" stroke="black" cx="243" cy="-714" rx="27" ry="18"/>
<text text-anchor="middle" x="243" y="-710.3" font-family="Times,serif" font-size="14.00">293</text>
</g>
<!-- 1&#45;&gt;2 -->
<g id="edge9" class="edge">
<title>1&#45;&gt;2</title>
<path fill="none" stroke="black" d="M412.09,-790.25C378.36,-775.24 313.55,-746.4 274.7,-729.11"/>
<polygon fill="black" stroke="black" points="276.51,-725.64 265.95,-724.77 273.66,-732.03 276.51,-725.64"/>
<text text-anchor="middle" x="353.5" y="-753.8" font-family="Times,serif" font-size="14.00">0</text>
</g>
<!-- 11 -->
<g id="node12" class="node">
<title>11</title>
<ellipse fill="none" stroke="black" cx="434" cy="-714" rx="27" ry="18"/>
<text text-anchor="middle" x="434" y="-710.3" font-family="Times,serif" font-size="14.00">216</text>
</g>
<!-- 1&#45;&gt;11 -->
<g id="edge48" class="edge">
<title>1&#45;&gt;11</title>
<path fill="none" stroke="black" d="M434,-782.8C434,-771.47 434,-756.36 434,-743.29"/>
<polygon fill="black" stroke="black" points="437.5,-743.47 434,-733.47 430.5,-743.47 437.5,-743.47"/>
<text text-anchor="middle" x="437.5" y="-753.8" font-family="Times,serif" font-size="14.00">1</text>
</g>
<!-- 3 -->
<g id="node4" class="node">
<title>3</title>
<ellipse fill="none" stroke="black" cx="169" cy="-627" rx="28.7" ry="18"/>
<text text-anchor="middle" x="169" y="-623.3" font-family="Times,serif" font-size="14.00">150 &#160;</text>
</g>
<!-- 2&#45;&gt;3 -->
<g id="edge1" class="edge">
<title>2&#45;&gt;3</title>
<path fill="none" stroke="black" d="M229.77,-697.8C218.58,-684.95 202.36,-666.32 189.49,-651.54"/>
<polygon fill="black" stroke="black" points="191.57,-649.6 182.36,-644.35 186.29,-654.19 191.57,-649.6"/>
<text text-anchor="middle" x="214.5" y="-666.8" font-family="Times,serif" font-size="14.00">0</text>
</g>
<!-- 4 -->
<g id="node5" class="node">
<title>4</title>
<ellipse fill="none" stroke="black" cx="243" cy="-627" rx="27" ry="18"/>
<text text-anchor="middle" x="243" y="-623.3" font-family="Times,serif" font-size="14.00">143</text>
</g>
<!-- 2&#45;&gt;4 -->
<g id="edge8" class="edge">
<title>2&#45;&gt;4</title>
<path fill="none" stroke="black" d="M243,-695.8C243,-684.47 243,-669.36 243,-656.29"/>
<polygon fill="black" stroke="black" points="246.5,-656.47 243,-646.47 239.5,-656.47 246.5,-656.47"/>
<text text-anchor="middle" x="246.5" y="-666.8" font-family="Times,serif" font-size="14.00">1</text>
</g>
<!-- 5 -->
<g id="node6" class="node">
<title>5</title>
<ellipse fill="none" stroke="black" cx="171" cy="-540" rx="27" ry="18"/>
<text text-anchor="middle" x="171" y="-536.3" font-family="Times,serif" font-size="14.00">74</text>
</g>
<!-- 4&#45;&gt;5 -->
<g id="edge6" class="edge">
<title>4&#45;&gt;5</title>
<path fill="none" stroke="black" d="M230.13,-610.8C219.17,-597.87 203.26,-579.09 190.7,-564.26"/>
<polygon fill="black" stroke="black" points="192.89,-562.43 183.76,-557.06 187.55,-566.96 192.89,-562.43"/>
<text text-anchor="middle" x="215.5" y="-579.8" font-family="Times,serif" font-size="14.00">0</text>
</g>
<!-- 10 -->
<g id="node11" class="node">
<title>10</title>
<ellipse fill="none" stroke="black" cx="243" cy="-540" rx="27" ry="18"/>
<text text-anchor="middle" x="243" y="-536.3" font-family="Times,serif" font-size="14.00">69 o</text>
</g>
<!-- 4&#45;&gt;10 -->
<g id="edge7" class="edge">
<title>4&#45;&gt;10</title>
<path fill="none" stroke="black" d="M243,-608.8C243,-597.47 243,-582.36 243,-569.29"/>
<polygon fill="black" stroke="black" points="246.5,-569.47 243,-559.47 239.5,-569.47 246.5,-569.47"/>
<text text-anchor="middle" x="246.5" y="-579.8" font-family="Times,serif" font-size="14.00">1</text>
</g>
<!-- 6 -->
<g id="node7" class="node">
<title>6</title>
<ellipse fill="none" stroke="black" cx="99" cy="-453" rx="27" ry="18"/>
<text text-anchor="middle" x="99" y="-449.3" font-family="Times,serif" font-size="14.00">38</text>
</g>
<!-- 5&#45;&gt;6 -->
<g id="edge4" class="edge">
<title>5&#45;&gt;6</title>
<path fill="none" stroke="black" d="M158.13,-523.8C147.17,-510.87 131.26,-492.09 118.7,-477.26"/>
<polygon fill="black" stroke="black" points="120.89,-475.43 111.76,-470.06 115.55,-479.96 120.89,-475.43"/>
<text text-anchor="middle" x="143.5" y="-492.8" font-family="Times,serif" font-size="14.00">0</text>
</g>
<!-- 9 -->
<g id="node10" class="node">
<title>9</title>
<ellipse fill="none" stroke="black" cx="171" cy="-453" rx="27" ry="18"/>
<text text-anchor="middle" x="171" y="-449.3" font-family="Times,serif" font-size="14.00">36 h</text>
</g>
<!-- 5&#45;&gt;9 -->
<g id="edge5" class="edge">
<title>5&#45;&gt;9</title>
<path fill="none" stroke="black" d="M171,-521.8C171,-510.47 171,-495.36 171,-482.29"/>
<polygon fill="black" stroke="black" points="174.5,-482.47 171,-472.47 167.5,-482.47 174.5,-482.47"/>
<text text-anchor="middle" x="174.5" y="-492.8" font-family="Times,serif" font-size="14.00">1</text>
</g>
<!-- 7 -->
<g id="node8" class="node">
<title>7</title>
<ellipse fill="none" stroke="black" cx="27" cy="-366" rx="27" ry="18"/>
<text text-anchor="middle" x="27" y="-362.3" font-family="Times,serif" font-size="14.00">19 g</text>
</g>
<!-- 6&#45;&gt;7 -->
<g id="edge2" class="edge">
<title>6&#45;&gt;7</title>
<path fill="none" stroke="black" d="M86.13,-436.8C75.17,-423.87 59.26,-405.09 46.7,-390.26"/>
<polygon fill="black" stroke="black" points="48.89,-388.43 39.76,-383.06 43.55,-392.96 48.89,-388.43"/>
<text text-anchor="middle" x="71.5" y="-405.8" font-family="Times,serif" font-size="14.00">0</text>
</g>
<!-- 8 -->
<g id="node9" class="node">
<title>8</title>
<ellipse fill="none" stroke="black" cx="99" cy="-366" rx="27" ry="18"/>
<text text-anchor="middle" x="99" y="-362.3" font-family="Times,serif" font-size="14.00">19 </text>
</g>
<!-- 6&#45;&gt;8 -->
<g id="edge3" class="edge">
<title>6&#45;&gt;8</title>
<path fill="none" stroke="black" d="M99,-434.8C99,-423.47 99,-408.36 99,-395.29"/>
<polygon fill="black" stroke="black" points="102.5,-395.47 99,-385.47 95.5,-395.47 102.5,-395.47"/>
<text text-anchor="middle" x="102.5" y="-405.8" font-family="Times,serif" font-size="14.00">1</text>
</g>
<!-- 12 -->
<g id="node13" class="node">
<title>12</title>
<ellipse fill="none" stroke="black" cx="397" cy="-627" rx="27" ry="18"/>
<text text-anchor="middle" x="397" y="-623.3" font-family="Times,serif" font-size="14.00">120</text>
</g>
<!-- 11&#45;&gt;12 -->
<g id="edge40" class="edge">
<title>11&#45;&gt;12</title>
<path fill="none" stroke="black" d="M426.69,-696.21C421.52,-684.33 414.49,-668.17 408.56,-654.56"/>
<polygon fill="black" stroke="black" points="411.5,-653.53 404.29,-645.76 405.08,-656.32 411.5,-653.53"/>
<text text-anchor="middle" x="421.5" y="-666.8" font-family="Times,serif" font-size="14.00">0</text>
</g>
<!-- 43 -->
<g id="node44" class="node">
<title>43</title>
<ellipse fill="none" stroke="black" cx="478" cy="-627" rx="27" ry="18"/>
<text text-anchor="middle" x="478" y="-623.3" font-family="Times,serif" font-size="14.00">96</text>
</g>
<!-- 11&#45;&gt;43 -->
<g id="edge47" class="edge">
<title>11&#45;&gt;43</title>
<path fill="none" stroke="black" d="M442.48,-696.61C448.75,-684.5 457.41,-667.77 464.61,-653.86"/>
<polygon fill="black" stroke="black" points="468.05,-655.83 469.54,-645.34 461.84,-652.61 468.05,-655.83"/>
<text text-anchor="middle" x="462.5" y="-666.8" font-family="Times,serif" font-size="14.00">1</text>
</g>
<!-- 13 -->
<g id="node14" class="node">
<title>13</title>
<ellipse fill="none" stroke="black" cx="315" cy="-540" rx="27" ry="18"/>
<text text-anchor="middle" x="315" y="-536.3" font-family="Times,serif" font-size="14.00">64</text>
</g>
<!-- 12&#45;&gt;13 -->
<g id="edge36" class="edge">
<title>12&#45;&gt;13</title>
<path fill="none" stroke="black" d="M382.72,-611.19C370.02,-598.03 351.26,-578.59 336.71,-563.5"/>
<polygon fill="black" stroke="black" points="339.58,-561.4 330.12,-556.64 334.54,-566.26 339.58,-561.4"/>
<text text-anchor="middle" x="364.5" y="-579.8" font-family="Times,serif" font-size="14.00">0</text>
</g>
<!-- 40 -->
<g id="node41" class="node">
<title>40</title>
<ellipse fill="none" stroke="black" cx="397" cy="-540" rx="27" ry="18"/>
<text text-anchor="middle" x="397" y="-536.3" font-family="Times,serif" font-size="14.00">56</text>
</g>
<!-- 12&#45;&gt;40 -->
<g id="edge39" class="edge">
<title>12&#45;&gt;40</title>
<path fill="none" stroke="black" d="M397,-608.8C397,-597.47 397,-582.36 397,-569.29"/>
<polygon fill="black" stroke="black" points="400.5,-569.47 397,-559.47 393.5,-569.47 400.5,-569.47"/>
<text text-anchor="middle" x="400.5" y="-579.8" font-family="Times,serif" font-size="14.00">1</text>
</g>
<!-- 14 -->
<g id="node15" class="node">
<title>14</title>
<ellipse fill="none" stroke="black" cx="243" cy="-453" rx="27" ry="18"/>
<text text-anchor="middle" x="243" y="-449.3" font-family="Times,serif" font-size="14.00">33</text>
</g>
<!-- 13&#45;&gt;14 -->
<g id="edge14" class="edge">
<title>13&#45;&gt;14</title>
<path fill="none" stroke="black" d="M302.13,-523.8C291.17,-510.87 275.26,-492.09 262.7,-477.26"/>
<polygon fill="black" stroke="black" points="264.89,-475.43 255.76,-470.06 259.55,-479.96 264.89,-475.43"/>
<text text-anchor="middle" x="287.5" y="-492.8" font-family="Times,serif" font-size="14.00">0</text>
</g>
<!-- 19 -->
<g id="node20" class="node">
<title>19</title>
<ellipse fill="none" stroke="black" cx="315" cy="-453" rx="27" ry="18"/>
<text text-anchor="middle" x="315" y="-449.3" font-family="Times,serif" font-size="14.00">31</text>
</g>
<!-- 13&#45;&gt;19 -->
<g id="edge35" class="edge">
<title>13&#45;&gt;19</title>
<path fill="none" stroke="black" d="M315,-521.8C315,-510.47 315,-495.36 315,-482.29"/>
<polygon fill="black" stroke="black" points="318.5,-482.47 315,-472.47 311.5,-482.47 318.5,-482.47"/>
<text text-anchor="middle" x="318.5" y="-492.8" font-family="Times,serif" font-size="14.00">1</text>
</g>
<!-- 15 -->
<g id="node16" class="node">
<title>15</title>
<ellipse fill="none" stroke="black" cx="171" cy="-366" rx="27" ry="18"/>
<text text-anchor="middle" x="171" y="-362.3" font-family="Times,serif" font-size="14.00">17</text>
</g>
<!-- 14&#45;&gt;15 -->
<g id="edge12" class="edge">
<title>14&#45;&gt;15</title>
<path fill="none" stroke="black" d="M230.13,-436.8C219.17,-423.87 203.26,-405.09 190.7,-390.26"/>
<polygon fill="black" stroke="black" points="192.89,-388.43 183.76,-383.06 187.55,-392.96 192.89,-388.43"/>
<text text-anchor="middle" x="215.5" y="-405.8" font-family="Times,serif" font-size="14.00">0</text>
</g>
<!-- 18 -->
<g id="node19" class="node">
<title>18</title>
<ellipse fill="none" stroke="black" cx="243" cy="-366" rx="27" ry="18"/>
<text text-anchor="middle" x="243" y="-362.3" font-family="Times,serif" font-size="14.00">16 y</text>
</g>
<!-- 14&#45;&gt;18 -->
<g id="edge13" class="edge">
<title>14&#45;&gt;18</title>
<path fill="none" stroke="black" d="M243,-434.8C243,-423.47 243,-408.36 243,-395.29"/>
<polygon fill="black" stroke="black" points="246.5,-395.47 243,-385.47 239.5,-395.47 246.5,-395.47"/>
<text text-anchor="middle" x="246.5" y="-405.8" font-family="Times,serif" font-size="14.00">1</text>
</g>
<!-- 16 -->
<g id="node17" class="node">
<title>16</title>
<ellipse fill="none" stroke="black" cx="112" cy="-279" rx="27" ry="18"/>
<text text-anchor="middle" x="112" y="-275.3" font-family="Times,serif" font-size="14.00">9 k</text>
</g>
<!-- 15&#45;&gt;16 -->
<g id="edge10" class="edge">
<title>15&#45;&gt;16</title>
<path fill="none" stroke="black" d="M160.18,-349.41C151.5,-336.91 139.16,-319.13 129.14,-304.69"/>
<polygon fill="black" stroke="black" points="131.53,-303 122.95,-296.78 125.78,-306.99 131.53,-303"/>
<text text-anchor="middle" x="149.5" y="-318.8" font-family="Times,serif" font-size="14.00">0</text>
</g>
<!-- 17 -->
<g id="node18" class="node">
<title>17</title>
<ellipse fill="none" stroke="black" cx="184" cy="-279" rx="27" ry="18"/>
<text text-anchor="middle" x="184" y="-275.3" font-family="Times,serif" font-size="14.00">8 c</text>
</g>
<!-- 15&#45;&gt;17 -->
<g id="edge11" class="edge">
<title>15&#45;&gt;17</title>
<path fill="none" stroke="black" d="M173.63,-347.8C175.38,-336.39 177.7,-321.16 179.71,-308.03"/>
<polygon fill="black" stroke="black" points="183.32,-308.59 181.37,-298.18 176.4,-307.53 183.32,-308.59"/>
<text text-anchor="middle" x="182.5" y="-318.8" font-family="Times,serif" font-size="14.00">1</text>
</g>
<!-- 20 -->
<g id="node21" class="node">
<title>20</title>
<ellipse fill="none" stroke="black" cx="315" cy="-366" rx="27" ry="18"/>
<text text-anchor="middle" x="315" y="-362.3" font-family="Times,serif" font-size="14.00">16</text>
</g>
<!-- 19&#45;&gt;20 -->
<g id="edge33" class="edge">
<title>19&#45;&gt;20</title>
<path fill="none" stroke="black" d="M315,-434.8C315,-423.47 315,-408.36 315,-395.29"/>
<polygon fill="black" stroke="black" points="318.5,-395.47 315,-385.47 311.5,-395.47 318.5,-395.47"/>
<text text-anchor="middle" x="318.5" y="-405.8" font-family="Times,serif" font-size="14.00">0</text>
</g>
<!-- 39 -->
<g id="node40" class="node">
<title>39</title>
<ellipse fill="none" stroke="black" cx="389" cy="-366" rx="28.7" ry="18"/>
<text text-anchor="middle" x="389" y="-362.3" font-family="Times,serif" font-size="14.00">15 w</text>
</g>
<!-- 19&#45;&gt;39 -->
<g id="edge34" class="edge">
<title>19&#45;&gt;39</title>
<path fill="none" stroke="black" d="M328.23,-436.8C339.42,-423.95 355.64,-405.32 368.51,-390.54"/>
<polygon fill="black" stroke="black" points="371.71,-393.19 375.64,-383.35 366.43,-388.6 371.71,-393.19"/>
<text text-anchor="middle" x="360.5" y="-405.8" font-family="Times,serif" font-size="14.00">1</text>
</g>
<!-- 21 -->
<g id="node22" class="node">
<title>21</title>
<ellipse fill="none" stroke="black" cx="292" cy="-279" rx="27" ry="18"/>
<text text-anchor="middle" x="292" y="-275.3" font-family="Times,serif" font-size="14.00">8</text>
</g>
<!-- 20&#45;&gt;21 -->
<g id="edge23" class="edge">
<title>20&#45;&gt;21</title>
<path fill="none" stroke="black" d="M310.35,-347.8C307.23,-336.28 303.06,-320.86 299.48,-307.63"/>
<polygon fill="black" stroke="black" points="302.64,-306.91 296.65,-298.18 295.88,-308.74 302.64,-306.91"/>
<text text-anchor="middle" x="308.5" y="-318.8" font-family="Times,serif" font-size="14.00">0</text>
</g>
<!-- 30 -->
<g id="node31" class="node">
<title>30</title>
<ellipse fill="none" stroke="black" cx="364" cy="-279" rx="27" ry="18"/>
<text text-anchor="middle" x="364" y="-275.3" font-family="Times,serif" font-size="14.00">8</text>
</g>
<!-- 20&#45;&gt;30 -->
<g id="edge32" class="edge">
<title>20&#45;&gt;30</title>
<path fill="none" stroke="black" d="M324.22,-349.01C331.29,-336.74 341.19,-319.57 349.35,-305.42"/>
<polygon fill="black" stroke="black" points="352.7,-307.62 354.66,-297.21 346.63,-304.12 352.7,-307.62"/>
<text text-anchor="middle" x="346.5" y="-318.8" font-family="Times,serif" font-size="14.00">1</text>
</g>
<!-- 22 -->
<g id="node23" class="node">
<title>22</title>
<ellipse fill="none" stroke="black" cx="220" cy="-192" rx="27" ry="18"/>
<text text-anchor="middle" x="220" y="-188.3" font-family="Times,serif" font-size="14.00">4</text>
</g>
<!-- 21&#45;&gt;22 -->
<g id="edge19" class="edge">
<title>21&#45;&gt;22</title>
<path fill="none" stroke="black" d="M279.13,-262.8C268.17,-249.87 252.26,-231.09 239.7,-216.26"/>
<polygon fill="black" stroke="black" points="241.89,-214.43 232.76,-209.06 236.55,-218.96 241.89,-214.43"/>
<text text-anchor="middle" x="264.5" y="-231.8" font-family="Times,serif" font-size="14.00">0</text>
</g>
<!-- 27 -->
<g id="node28" class="node">
<title>27</title>
<ellipse fill="none" stroke="black" cx="292" cy="-192" rx="27" ry="18"/>
<text text-anchor="middle" x="292" y="-188.3" font-family="Times,serif" font-size="14.00">4</text>
</g>
<!-- 21&#45;&gt;27 -->
<g id="edge22" class="edge">
<title>21&#45;&gt;27</title>
<path fill="none" stroke="black" d="M292,-260.8C292,-249.47 292,-234.36 292,-221.29"/>
<polygon fill="black" stroke="black" points="295.5,-221.47 292,-211.47 288.5,-221.47 295.5,-221.47"/>
<text text-anchor="middle" x="295.5" y="-231.8" font-family="Times,serif" font-size="14.00">1</text>
</g>
<!-- 23 -->
<g id="node24" class="node">
<title>23</title>
<ellipse fill="none" stroke="black" cx="148" cy="-105" rx="27" ry="18"/>
<text text-anchor="middle" x="148" y="-101.3" font-family="Times,serif" font-size="14.00">2 T</text>
</g>
<!-- 22&#45;&gt;23 -->
<g id="edge15" class="edge">
<title>22&#45;&gt;23</title>
<path fill="none" stroke="black" d="M207.13,-175.8C196.17,-162.87 180.26,-144.09 167.7,-129.26"/>
<polygon fill="black" stroke="black" points="169.89,-127.43 160.76,-122.06 164.55,-131.96 169.89,-127.43"/>
<text text-anchor="middle" x="192.5" y="-144.8" font-family="Times,serif" font-size="14.00">0</text>
</g>
<!-- 24 -->
<g id="node25" class="node">
<title>24</title>
<ellipse fill="none" stroke="black" cx="220" cy="-105" rx="27" ry="18"/>
<text text-anchor="middle" x="220" y="-101.3" font-family="Times,serif" font-size="14.00">2</text>
</g>
<!-- 22&#45;&gt;24 -->
<g id="edge18" class="edge">
<title>22&#45;&gt;24</title>
<path fill="none" stroke="black" d="M220,-173.8C220,-162.47 220,-147.36 220,-134.29"/>
<polygon fill="black" stroke="black" points="223.5,-134.47 220,-124.47 216.5,-134.47 223.5,-134.47"/>
<text text-anchor="middle" x="223.5" y="-144.8" font-family="Times,serif" font-size="14.00">1</text>
</g>
<!-- 25 -->
<g id="node26" class="node">
<title>25</title>
<ellipse fill="none" stroke="black" cx="184" cy="-18" rx="27" ry="18"/>
<text text-anchor="middle" x="184" y="-14.3" font-family="Times,serif" font-size="14.00">1 Y</text>
</g>
<!-- 24&#45;&gt;25 -->
<g id="edge16" class="edge">
<title>24&#45;&gt;25</title>
<path fill="none" stroke="black" d="M212.89,-87.21C207.86,-75.33 201.01,-59.17 195.25,-45.56"/>
<polygon fill="black" stroke="black" points="198.22,-44.6 191.1,-36.76 191.77,-47.33 198.22,-44.6"/>
<text text-anchor="middle" x="208.5" y="-57.8" font-family="Times,serif" font-size="14.00">0</text>
</g>
<!-- 26 -->
<g id="node27" class="node">
<title>26</title>
<ellipse fill="none" stroke="black" cx="256" cy="-18" rx="27" ry="18"/>
<text text-anchor="middle" x="256" y="-14.3" font-family="Times,serif" font-size="14.00">1 A</text>
</g>
<!-- 24&#45;&gt;26 -->
<g id="edge17" class="edge">
<title>24&#45;&gt;26</title>
<path fill="none" stroke="black" d="M227.11,-87.21C232.14,-75.33 238.99,-59.17 244.75,-45.56"/>
<polygon fill="black" stroke="black" points="248.23,-47.33 248.9,-36.76 241.78,-44.6 248.23,-47.33"/>
<text text-anchor="middle" x="244.5" y="-57.8" font-family="Times,serif" font-size="14.00">1</text>
</g>
<!-- 28 -->
<g id="node29" class="node">
<title>28</title>
<ellipse fill="none" stroke="black" cx="292" cy="-105" rx="27" ry="18"/>
<text text-anchor="middle" x="292" y="-101.3" font-family="Times,serif" font-size="14.00">2 B</text>
</g>
<!-- 27&#45;&gt;28 -->
<g id="edge20" class="edge">
<title>27&#45;&gt;28</title>
<path fill="none" stroke="black" d="M292,-173.8C292,-162.47 292,-147.36 292,-134.29"/>
<polygon fill="black" stroke="black" points="295.5,-134.47 292,-124.47 288.5,-134.47 295.5,-134.47"/>
<text text-anchor="middle" x="295.5" y="-144.8" font-family="Times,serif" font-size="14.00">0</text>
</g>
<!-- 29 -->
<g id="node30" class="node">
<title>29</title>
<ellipse fill="none" stroke="black" cx="364" cy="-105" rx="27" ry="18"/>
<text text-anchor="middle" x="364" y="-101.3" font-family="Times,serif" font-size="14.00">2 H</text>
</g>
<!-- 27&#45;&gt;29 -->
<g id="edge21" class="edge">
<title>27&#45;&gt;29</title>
<path fill="none" stroke="black" d="M304.87,-175.8C315.83,-162.87 331.74,-144.09 344.3,-129.26"/>
<polygon fill="black" stroke="black" points="347.45,-131.96 351.24,-122.06 342.11,-127.43 347.45,-131.96"/>
<text text-anchor="middle" x="336.5" y="-144.8" font-family="Times,serif" font-size="14.00">1</text>
</g>
<!-- 31 -->
<g id="node32" class="node">
<title>31</title>
<ellipse fill="none" stroke="black" cx="364" cy="-192" rx="27" ry="18"/>
<text text-anchor="middle" x="364" y="-188.3" font-family="Times,serif" font-size="14.00">4 G</text>
</g>
<!-- 30&#45;&gt;31 -->
<g id="edge24" class="edge">
<title>30&#45;&gt;31</title>
<path fill="none" stroke="black" d="M364,-260.8C364,-249.47 364,-234.36 364,-221.29"/>
<polygon fill="black" stroke="black" points="367.5,-221.47 364,-211.47 360.5,-221.47 367.5,-221.47"/>
<text text-anchor="middle" x="367.5" y="-231.8" font-family="Times,serif" font-size="14.00">0</text>
</g>
<!-- 32 -->
<g id="node33" class="node">
<title>32</title>
<ellipse fill="none" stroke="black" cx="436" cy="-192" rx="27" ry="18"/>
<text text-anchor="middle" x="436" y="-188.3" font-family="Times,serif" font-size="14.00">4</text>
</g>
<!-- 30&#45;&gt;32 -->
<g id="edge31" class="edge">
<title>30&#45;&gt;32</title>
<path fill="none" stroke="black" d="M376.87,-262.8C387.83,-249.87 403.74,-231.09 416.3,-216.26"/>
<polygon fill="black" stroke="black" points="419.45,-218.96 423.24,-209.06 414.11,-214.43 419.45,-218.96"/>
<text text-anchor="middle" x="408.5" y="-231.8" font-family="Times,serif" font-size="14.00">1</text>
</g>
<!-- 33 -->
<g id="node34" class="node">
<title>33</title>
<ellipse fill="none" stroke="black" cx="436" cy="-105" rx="27" ry="18"/>
<text text-anchor="middle" x="436" y="-101.3" font-family="Times,serif" font-size="14.00">2</text>
</g>
<!-- 32&#45;&gt;33 -->
<g id="edge27" class="edge">
<title>32&#45;&gt;33</title>
<path fill="none" stroke="black" d="M436,-173.8C436,-162.47 436,-147.36 436,-134.29"/>
<polygon fill="black" stroke="black" points="439.5,-134.47 436,-124.47 432.5,-134.47 439.5,-134.47"/>
<text text-anchor="middle" x="439.5" y="-144.8" font-family="Times,serif" font-size="14.00">0</text>
</g>
<!-- 36 -->
<g id="node37" class="node">
<title>36</title>
<ellipse fill="none" stroke="black" cx="508" cy="-105" rx="27" ry="18"/>
<text text-anchor="middle" x="508" y="-101.3" font-family="Times,serif" font-size="14.00">2</text>
</g>
<!-- 32&#45;&gt;36 -->
<g id="edge30" class="edge">
<title>32&#45;&gt;36</title>
<path fill="none" stroke="black" d="M448.87,-175.8C459.83,-162.87 475.74,-144.09 488.3,-129.26"/>
<polygon fill="black" stroke="black" points="491.45,-131.96 495.24,-122.06 486.11,-127.43 491.45,-131.96"/>
<text text-anchor="middle" x="480.5" y="-144.8" font-family="Times,serif" font-size="14.00">1</text>
</g>
<!-- 34 -->
<g id="node35" class="node">
<title>34</title>
<ellipse fill="none" stroke="black" cx="364" cy="-18" rx="27" ry="18"/>
<text text-anchor="middle" x="364" y="-14.3" font-family="Times,serif" font-size="14.00">1 V</text>
</g>
<!-- 33&#45;&gt;34 -->
<g id="edge25" class="edge">
<title>33&#45;&gt;34</title>
<path fill="none" stroke="black" d="M423.13,-88.8C412.17,-75.87 396.26,-57.09 383.7,-42.26"/>
<polygon fill="black" stroke="black" points="385.89,-40.43 376.76,-35.06 380.55,-44.96 385.89,-40.43"/>
<text text-anchor="middle" x="408.5" y="-57.8" font-family="Times,serif" font-size="14.00">0</text>
</g>
<!-- 35 -->
<g id="node36" class="node">
<title>35</title>
<ellipse fill="none" stroke="black" cx="436" cy="-18" rx="27" ry="18"/>
<text text-anchor="middle" x="436" y="-14.3" font-family="Times,serif" font-size="14.00">1 S</text>
</g>
<!-- 33&#45;&gt;35 -->
<g id="edge26" class="edge">
<title>33&#45;&gt;35</title>
<path fill="none" stroke="black" d="M436,-86.8C436,-75.47 436,-60.36 436,-47.29"/>
<polygon fill="black" stroke="black" points="439.5,-47.47 436,-37.47 432.5,-47.47 439.5,-47.47"/>
<text text-anchor="middle" x="439.5" y="-57.8" font-family="Times,serif" font-size="14.00">1</text>
</g>
<!-- 37 -->
<g id="node38" class="node">
<title>37</title>
<ellipse fill="none" stroke="black" cx="508" cy="-18" rx="27" ry="18"/>
<text text-anchor="middle" x="508" y="-14.3" font-family="Times,serif" font-size="14.00">1 O</text>
</g>
<!-- 36&#45;&gt;37 -->
<g id="edge28" class="edge">
<title>36&#45;&gt;37</title>
<path fill="none" stroke="black" d="M508,-86.8C508,-75.47 508,-60.36 508,-47.29"/>
<polygon fill="black" stroke="black" points="511.5,-47.47 508,-37.47 504.5,-47.47 511.5,-47.47"/>
<text text-anchor="middle" x="511.5" y="-57.8" font-family="Times,serif" font-size="14.00">0</text>
</g>
<!-- 38 -->
<g id="node39" class="node">
<title>38</title>
<ellipse fill="none" stroke="black" cx="580" cy="-18" rx="27" ry="18"/>
<text text-anchor="middle" x="580" y="-14.3" font-family="Times,serif" font-size="14.00">1 ;</text>
</g>
<!-- 36&#45;&gt;38 -->
<g id="edge29" class="edge">
<title>36&#45;&gt;38</title>
<path fill="none" stroke="black" d="M520.87,-88.8C531.83,-75.87 547.74,-57.09 560.3,-42.26"/>
<polygon fill="black" stroke="black" points="563.45,-44.96 567.24,-35.06 558.11,-40.43 563.45,-44.96"/>
<text text-anchor="middle" x="552.5" y="-57.8" font-family="Times,serif" font-size="14.00">1</text>
</g>
<!-- 41 -->
<g id="node42" class="node">
<title>41</title>
<ellipse fill="none" stroke="black" cx="387" cy="-453" rx="27" ry="18"/>
<text text-anchor="middle" x="387" y="-449.3" font-family="Times,serif" font-size="14.00">28 i</text>
</g>
<!-- 40&#45;&gt;41 -->
<g id="edge37" class="edge">
<title>40&#45;&gt;41</title>
<path fill="none" stroke="black" d="M394.98,-521.8C393.63,-510.39 391.84,-495.16 390.3,-482.03"/>
<polygon fill="black" stroke="black" points="393.67,-481.7 389.02,-472.18 386.71,-482.52 393.67,-481.7"/>
<text text-anchor="middle" x="396.5" y="-492.8" font-family="Times,serif" font-size="14.00">0</text>
</g>
<!-- 42 -->
<g id="node43" class="node">
<title>42</title>
<ellipse fill="none" stroke="black" cx="461" cy="-453" rx="29.5" ry="18"/>
<text text-anchor="middle" x="461" y="-449.3" font-family="Times,serif" font-size="14.00">28 m</text>
</g>
<!-- 40&#45;&gt;42 -->
<g id="edge38" class="edge">
<title>40&#45;&gt;42</title>
<path fill="none" stroke="black" d="M408.74,-523.41C418.24,-510.79 431.79,-492.79 442.72,-478.28"/>
<polygon fill="black" stroke="black" points="445.9,-480.87 449.12,-470.78 440.31,-476.66 445.9,-480.87"/>
<text text-anchor="middle" x="436.5" y="-492.8" font-family="Times,serif" font-size="14.00">1</text>
</g>
<!-- 44 -->
<g id="node45" class="node">
<title>44</title>
<ellipse fill="none" stroke="black" cx="478" cy="-540" rx="27" ry="18"/>
<text text-anchor="middle" x="478" y="-536.3" font-family="Times,serif" font-size="14.00">49</text>
</g>
<!-- 43&#45;&gt;44 -->
<g id="edge45" class="edge">
<title>43&#45;&gt;44</title>
<path fill="none" stroke="black" d="M478,-608.8C478,-597.47 478,-582.36 478,-569.29"/>
<polygon fill="black" stroke="black" points="481.5,-569.47 478,-559.47 474.5,-569.47 481.5,-569.47"/>
<text text-anchor="middle" x="481.5" y="-579.8" font-family="Times,serif" font-size="14.00">0</text>
</g>
<!-- 49 -->
<g id="node50" class="node">
<title>49</title>
<ellipse fill="none" stroke="black" cx="550" cy="-540" rx="27" ry="18"/>
<text text-anchor="middle" x="550" y="-536.3" font-family="Times,serif" font-size="14.00">47 r</text>
</g>
<!-- 43&#45;&gt;49 -->
<g id="edge46" class="edge">
<title>43&#45;&gt;49</title>
<path fill="none" stroke="black" d="M490.87,-610.8C501.83,-597.87 517.74,-579.09 530.3,-564.26"/>
<polygon fill="black" stroke="black" points="533.45,-566.96 537.24,-557.06 528.11,-562.43 533.45,-566.96"/>
<text text-anchor="middle" x="522.5" y="-579.8" font-family="Times,serif" font-size="14.00">1</text>
</g>
<!-- 45 -->
<g id="node46" class="node">
<title>45</title>
<ellipse fill="none" stroke="black" cx="535" cy="-453" rx="27" ry="18"/>
<text text-anchor="middle" x="535" y="-449.3" font-family="Times,serif" font-size="14.00">26</text>
</g>
<!-- 44&#45;&gt;45 -->
<g id="edge43" class="edge">
<title>44&#45;&gt;45</title>
<path fill="none" stroke="black" d="M488.72,-523.01C497.08,-510.55 508.84,-493.01 518.41,-478.74"/>
<polygon fill="black" stroke="black" points="521.66,-481.17 524.33,-470.92 515.85,-477.27 521.66,-481.17"/>
<text text-anchor="middle" x="513.5" y="-492.8" font-family="Times,serif" font-size="14.00">0</text>
</g>
<!-- 48 -->
<g id="node49" class="node">
<title>48</title>
<ellipse fill="none" stroke="black" cx="607" cy="-453" rx="27" ry="18"/>
<text text-anchor="middle" x="607" y="-449.3" font-family="Times,serif" font-size="14.00">23 ,</text>
</g>
<!-- 44&#45;&gt;48 -->
<g id="edge44" class="edge">
<title>44&#45;&gt;48</title>
<path fill="none" stroke="black" d="M496.76,-526.64C518.44,-512.35 554.35,-488.69 579.26,-472.28"/>
<polygon fill="black" stroke="black" points="580.8,-474.8 587.22,-466.37 576.94,-468.95 580.8,-474.8"/>
<text text-anchor="middle" x="554.5" y="-492.8" font-family="Times,serif" font-size="14.00">1</text>
</g>
<!-- 46 -->
<g id="node47" class="node">
<title>46</title>
<ellipse fill="none" stroke="black" cx="485" cy="-366" rx="27" ry="18"/>
<text text-anchor="middle" x="485" y="-362.3" font-family="Times,serif" font-size="14.00">13 l</text>
</g>
<!-- 45&#45;&gt;46 -->
<g id="edge41" class="edge">
<title>45&#45;&gt;46</title>
<path fill="none" stroke="black" d="M525.6,-436.01C518.38,-423.74 508.27,-406.57 499.95,-392.42"/>
<polygon fill="black" stroke="black" points="502.62,-391.05 494.53,-384.21 496.59,-394.6 502.62,-391.05"/>
<text text-anchor="middle" x="516.5" y="-405.8" font-family="Times,serif" font-size="14.00">0</text>
</g>
<!-- 47 -->
<g id="node48" class="node">
<title>47</title>
<ellipse fill="none" stroke="black" cx="557" cy="-366" rx="27" ry="18"/>
<text text-anchor="middle" x="557" y="-362.3" font-family="Times,serif" font-size="14.00">13 p</text>
</g>
<!-- 45&#45;&gt;47 -->
<g id="edge42" class="edge">
<title>45&#45;&gt;47</title>
<path fill="none" stroke="black" d="M539.45,-434.8C542.43,-423.28 546.43,-407.86 549.85,-394.63"/>
<polygon fill="black" stroke="black" points="553.44,-395.73 552.55,-385.18 546.66,-393.98 553.44,-395.73"/>
<text text-anchor="middle" x="551.5" y="-405.8" font-family="Times,serif" font-size="14.00">1</text>
</g>
<!-- 51 -->
<g id="node52" class="node">
<title>51</title>
<ellipse fill="none" stroke="black" cx="611" cy="-714" rx="27" ry="18"/>
<text text-anchor="middle" x="611" y="-710.3" font-family="Times,serif" font-size="14.00">172</text>
</g>
<!-- 50&#45;&gt;51 -->
<g id="edge60" class="edge">
<title>50&#45;&gt;51</title>
<path fill="none" stroke="black" d="M611,-782.8C611,-771.47 611,-756.36 611,-743.29"/>
<polygon fill="black" stroke="black" points="614.5,-743.47 611,-733.47 607.5,-743.47 614.5,-743.47"/>
<text text-anchor="middle" x="614.5" y="-753.8" font-family="Times,serif" font-size="14.00">0</text>
</g>
<!-- 62 -->
<g id="node63" class="node">
<title>62</title>
<ellipse fill="none" stroke="black" cx="781" cy="-714" rx="27" ry="18"/>
<text text-anchor="middle" x="781" y="-710.3" font-family="Times,serif" font-size="14.00">158</text>
</g>
<!-- 50&#45;&gt;62 -->
<g id="edge75" class="edge">
<title>50&#45;&gt;62</title>
<path fill="none" stroke="black" d="M632.19,-789.41C661.92,-774.54 716.19,-747.4 750.33,-730.33"/>
<polygon fill="black" stroke="black" points="751.43,-733.2 758.81,-725.59 748.3,-726.93 751.43,-733.2"/>
<text text-anchor="middle" x="710.5" y="-753.8" font-family="Times,serif" font-size="14.00">1</text>
</g>
<!-- 52 -->
<g id="node53" class="node">
<title>52</title>
<ellipse fill="none" stroke="black" cx="586" cy="-627" rx="27" ry="18"/>
<text text-anchor="middle" x="586" y="-623.3" font-family="Times,serif" font-size="14.00">88 e</text>
</g>
<!-- 51&#45;&gt;52 -->
<g id="edge50" class="edge">
<title>51&#45;&gt;52</title>
<path fill="none" stroke="black" d="M606.06,-696.21C602.62,-684.52 597.97,-668.69 594.01,-655.22"/>
<polygon fill="black" stroke="black" points="597.19,-654.66 591.01,-646.05 590.48,-656.63 597.19,-654.66"/>
<text text-anchor="middle" x="603.5" y="-666.8" font-family="Times,serif" font-size="14.00">0</text>
</g>
<!-- 53 -->
<g id="node54" class="node">
<title>53</title>
<ellipse fill="none" stroke="black" cx="658" cy="-627" rx="27" ry="18"/>
<text text-anchor="middle" x="658" y="-623.3" font-family="Times,serif" font-size="14.00">84</text>
</g>
<!-- 51&#45;&gt;53 -->
<g id="edge59" class="edge">
<title>51&#45;&gt;53</title>
<path fill="none" stroke="black" d="M620.06,-696.61C626.76,-684.5 636.01,-667.77 643.7,-653.86"/>
<polygon fill="black" stroke="black" points="647.19,-655.78 648.97,-645.34 641.06,-652.4 647.19,-655.78"/>
<text text-anchor="middle" x="641.5" y="-666.8" font-family="Times,serif" font-size="14.00">1</text>
</g>
<!-- 54 -->
<g id="node55" class="node">
<title>54</title>
<ellipse fill="none" stroke="black" cx="622" cy="-540" rx="27" ry="18"/>
<text text-anchor="middle" x="622" y="-536.3" font-family="Times,serif" font-size="14.00">42 s</text>
</g>
<!-- 53&#45;&gt;54 -->
<g id="edge51" class="edge">
<title>53&#45;&gt;54</title>
<path fill="none" stroke="black" d="M650.89,-609.21C645.86,-597.33 639.01,-581.17 633.25,-567.56"/>
<polygon fill="black" stroke="black" points="636.22,-566.6 629.1,-558.76 629.77,-569.33 636.22,-566.6"/>
<text text-anchor="middle" x="646.5" y="-579.8" font-family="Times,serif" font-size="14.00">0</text>
</g>
<!-- 55 -->
<g id="node56" class="node">
<title>55</title>
<ellipse fill="none" stroke="black" cx="694" cy="-540" rx="27" ry="18"/>
<text text-anchor="middle" x="694" y="-536.3" font-family="Times,serif" font-size="14.00">42</text>
</g>
<!-- 53&#45;&gt;55 -->
<g id="edge58" class="edge">
<title>53&#45;&gt;55</title>
<path fill="none" stroke="black" d="M665.11,-609.21C670.14,-597.33 676.99,-581.17 682.75,-567.56"/>
<polygon fill="black" stroke="black" points="686.23,-569.33 686.9,-558.76 679.78,-566.6 686.23,-569.33"/>
<text text-anchor="middle" x="682.5" y="-579.8" font-family="Times,serif" font-size="14.00">1</text>
</g>
<!-- 56 -->
<g id="node57" class="node">
<title>56</title>
<ellipse fill="none" stroke="black" cx="679" cy="-453" rx="27" ry="18"/>
<text text-anchor="middle" x="679" y="-449.3" font-family="Times,serif" font-size="14.00">22</text>
</g>
<!-- 55&#45;&gt;56 -->
<g id="edge56" class="edge">
<title>55&#45;&gt;56</title>
<path fill="none" stroke="black" d="M690.96,-521.8C688.93,-510.28 686.21,-494.86 683.88,-481.63"/>
<polygon fill="black" stroke="black" points="687.22,-481.41 682.03,-472.18 680.32,-482.63 687.22,-481.41"/>
<text text-anchor="middle" x="691.5" y="-492.8" font-family="Times,serif" font-size="14.00">0</text>
</g>
<!-- 61 -->
<g id="node62" class="node">
<title>61</title>
<ellipse fill="none" stroke="black" cx="751" cy="-453" rx="27" ry="18"/>
<text text-anchor="middle" x="751" y="-449.3" font-family="Times,serif" font-size="14.00">20 d</text>
</g>
<!-- 55&#45;&gt;61 -->
<g id="edge57" class="edge">
<title>55&#45;&gt;61</title>
<path fill="none" stroke="black" d="M704.72,-523.01C713.08,-510.55 724.84,-493.01 734.41,-478.74"/>
<polygon fill="black" stroke="black" points="737.66,-481.17 740.33,-470.92 731.85,-477.27 737.66,-481.17"/>
<text text-anchor="middle" x="729.5" y="-492.8" font-family="Times,serif" font-size="14.00">1</text>
</g>
<!-- 57 -->
<g id="node58" class="node">
<title>57</title>
<ellipse fill="none" stroke="black" cx="665" cy="-366" rx="27" ry="18"/>
<text text-anchor="middle" x="665" y="-362.3" font-family="Times,serif" font-size="14.00">12</text>
</g>
<!-- 56&#45;&gt;57 -->
<g id="edge54" class="edge">
<title>56&#45;&gt;57</title>
<path fill="none" stroke="black" d="M676.17,-434.8C674.27,-423.28 671.73,-407.86 669.55,-394.63"/>
<polygon fill="black" stroke="black" points="672.91,-394.47 667.83,-385.18 666,-395.61 672.91,-394.47"/>
<text text-anchor="middle" x="676.5" y="-405.8" font-family="Times,serif" font-size="14.00">0</text>
</g>
<!-- 60 -->
<g id="node61" class="node">
<title>60</title>
<ellipse fill="none" stroke="black" cx="737" cy="-366" rx="27" ry="18"/>
<text text-anchor="middle" x="737" y="-362.3" font-family="Times,serif" font-size="14.00">10 I</text>
</g>
<!-- 56&#45;&gt;60 -->
<g id="edge55" class="edge">
<title>56&#45;&gt;60</title>
<path fill="none" stroke="black" d="M689.64,-436.41C698.17,-423.91 710.3,-406.13 720.15,-391.69"/>
<polygon fill="black" stroke="black" points="723.49,-394.01 726.23,-383.78 717.71,-390.07 723.49,-394.01"/>
<text text-anchor="middle" x="715.5" y="-405.8" font-family="Times,serif" font-size="14.00">1</text>
</g>
<!-- 58 -->
<g id="node59" class="node">
<title>58</title>
<ellipse fill="none" stroke="black" cx="656" cy="-279" rx="27" ry="18"/>
<text text-anchor="middle" x="656" y="-275.3" font-family="Times,serif" font-size="14.00">7 .</text>
</g>
<!-- 57&#45;&gt;58 -->
<g id="edge52" class="edge">
<title>57&#45;&gt;58</title>
<path fill="none" stroke="black" d="M663.18,-347.8C661.97,-336.39 660.36,-321.16 658.97,-308.03"/>
<polygon fill="black" stroke="black" points="662.35,-307.75 657.82,-298.18 655.39,-308.49 662.35,-307.75"/>
<text text-anchor="middle" x="665.5" y="-318.8" font-family="Times,serif" font-size="14.00">0</text>
</g>
<!-- 59 -->
<g id="node60" class="node">
<title>59</title>
<ellipse fill="none" stroke="black" cx="728" cy="-279" rx="27" ry="18"/>
<text text-anchor="middle" x="728" y="-275.3" font-family="Times,serif" font-size="14.00">5 b</text>
</g>
<!-- 57&#45;&gt;59 -->
<g id="edge53" class="edge">
<title>57&#45;&gt;59</title>
<path fill="none" stroke="black" d="M676.56,-349.41C685.97,-336.71 699.42,-318.56 710.21,-304.01"/>
<polygon fill="black" stroke="black" points="713.38,-306.61 716.52,-296.49 707.75,-302.44 713.38,-306.61"/>
<text text-anchor="middle" x="704.5" y="-318.8" font-family="Times,serif" font-size="14.00">1</text>
</g>
<!-- 63 -->
<g id="node64" class="node">
<title>63</title>
<ellipse fill="none" stroke="black" cx="781" cy="-627" rx="27" ry="18"/>
<text text-anchor="middle" x="781" y="-623.3" font-family="Times,serif" font-size="14.00">81</text>
</g>
<!-- 62&#45;&gt;63 -->
<g id="edge71" class="edge">
<title>62&#45;&gt;63</title>
<path fill="none" stroke="black" d="M781,-695.8C781,-684.47 781,-669.36 781,-656.29"/>
<polygon fill="black" stroke="black" points="784.5,-656.47 781,-646.47 777.5,-656.47 784.5,-656.47"/>
<text text-anchor="middle" x="784.5" y="-666.8" font-family="Times,serif" font-size="14.00">0</text>
</g>
<!-- 74 -->
<g id="node75" class="node">
<title>74</title>
<ellipse fill="none" stroke="black" cx="910" cy="-627" rx="27" ry="18"/>
<text text-anchor="middle" x="910" y="-623.3" font-family="Times,serif" font-size="14.00">77</text>
</g>
<!-- 62&#45;&gt;74 -->
<g id="edge74" class="edge">
<title>62&#45;&gt;74</title>
<path fill="none" stroke="black" d="M799.76,-700.64C821.44,-686.35 857.35,-662.69 882.26,-646.28"/>
<polygon fill="black" stroke="black" points="883.8,-648.8 890.22,-640.37 879.94,-642.95 883.8,-648.8"/>
<text text-anchor="middle" x="857.5" y="-666.8" font-family="Times,serif" font-size="14.00">1</text>
</g>
<!-- 64 -->
<g id="node65" class="node">
<title>64</title>
<ellipse fill="none" stroke="black" cx="766" cy="-540" rx="27" ry="18"/>
<text text-anchor="middle" x="766" y="-536.3" font-family="Times,serif" font-size="14.00">41 t</text>
</g>
<!-- 63&#45;&gt;64 -->
<g id="edge61" class="edge">
<title>63&#45;&gt;64</title>
<path fill="none" stroke="black" d="M777.96,-608.8C775.93,-597.28 773.21,-581.86 770.88,-568.63"/>
<polygon fill="black" stroke="black" points="774.22,-568.41 769.03,-559.18 767.32,-569.63 774.22,-568.41"/>
<text text-anchor="middle" x="778.5" y="-579.8" font-family="Times,serif" font-size="14.00">0</text>
</g>
<!-- 65 -->
<g id="node66" class="node">
<title>65</title>
<ellipse fill="none" stroke="black" cx="838" cy="-540" rx="27" ry="18"/>
<text text-anchor="middle" x="838" y="-536.3" font-family="Times,serif" font-size="14.00">40</text>
</g>
<!-- 63&#45;&gt;65 -->
<g id="edge70" class="edge">
<title>63&#45;&gt;65</title>
<path fill="none" stroke="black" d="M791.72,-610.01C800.08,-597.55 811.84,-580.01 821.41,-565.74"/>
<polygon fill="black" stroke="black" points="824.66,-568.17 827.33,-557.92 818.85,-564.27 824.66,-568.17"/>
<text text-anchor="middle" x="816.5" y="-579.8" font-family="Times,serif" font-size="14.00">1</text>
</g>
<!-- 66 -->
<g id="node67" class="node">
<title>66</title>
<ellipse fill="none" stroke="black" cx="823" cy="-453" rx="27" ry="18"/>
<text text-anchor="middle" x="823" y="-449.3" font-family="Times,serif" font-size="14.00">20 u</text>
</g>
<!-- 65&#45;&gt;66 -->
<g id="edge62" class="edge">
<title>65&#45;&gt;66</title>
<path fill="none" stroke="black" d="M834.96,-521.8C832.93,-510.28 830.21,-494.86 827.88,-481.63"/>
<polygon fill="black" stroke="black" points="831.22,-481.41 826.03,-472.18 824.32,-482.63 831.22,-481.41"/>
<text text-anchor="middle" x="835.5" y="-492.8" font-family="Times,serif" font-size="14.00">0</text>
</g>
<!-- 67 -->
<g id="node68" class="node">
<title>67</title>
<ellipse fill="none" stroke="black" cx="895" cy="-453" rx="27" ry="18"/>
<text text-anchor="middle" x="895" y="-449.3" font-family="Times,serif" font-size="14.00">20</text>
</g>
<!-- 65&#45;&gt;67 -->
<g id="edge69" class="edge">
<title>65&#45;&gt;67</title>
<path fill="none" stroke="black" d="M848.72,-523.01C857.08,-510.55 868.84,-493.01 878.41,-478.74"/>
<polygon fill="black" stroke="black" points="881.66,-481.17 884.33,-470.92 875.85,-477.27 881.66,-481.17"/>
<text text-anchor="middle" x="873.5" y="-492.8" font-family="Times,serif" font-size="14.00">1</text>
</g>
<!-- 68 -->
<g id="node69" class="node">
<title>68</title>
<ellipse fill="none" stroke="black" cx="827" cy="-366" rx="27" ry="18"/>
<text text-anchor="middle" x="827" y="-362.3" font-family="Times,serif" font-size="14.00">10 f</text>
</g>
<!-- 67&#45;&gt;68 -->
<g id="edge63" class="edge">
<title>67&#45;&gt;68</title>
<path fill="none" stroke="black" d="M882.84,-436.8C872.56,-423.95 857.65,-405.32 845.83,-390.54"/>
<polygon fill="black" stroke="black" points="848.26,-388.97 839.28,-383.35 842.79,-393.35 848.26,-388.97"/>
<text text-anchor="middle" x="869.5" y="-405.8" font-family="Times,serif" font-size="14.00">0</text>
</g>
<!-- 69 -->
<g id="node70" class="node">
<title>69</title>
<ellipse fill="none" stroke="black" cx="899" cy="-366" rx="27" ry="18"/>
<text text-anchor="middle" x="899" y="-362.3" font-family="Times,serif" font-size="14.00">10</text>
</g>
<!-- 67&#45;&gt;69 -->
<g id="edge68" class="edge">
<title>67&#45;&gt;69</title>
<path fill="none" stroke="black" d="M895.81,-434.8C896.34,-423.47 897.05,-408.36 897.67,-395.29"/>
<polygon fill="black" stroke="black" points="901.2,-395.62 898.18,-385.47 894.21,-395.29 901.2,-395.62"/>
<text text-anchor="middle" x="901.5" y="-405.8" font-family="Times,serif" font-size="14.00">1</text>
</g>
<!-- 70 -->
<g id="node71" class="node">
<title>70</title>
<ellipse fill="none" stroke="black" cx="836" cy="-279" rx="27" ry="18"/>
<text text-anchor="middle" x="836" y="-275.3" font-family="Times,serif" font-size="14.00">5 :</text>
</g>
<!-- 69&#45;&gt;70 -->
<g id="edge64" class="edge">
<title>69&#45;&gt;70</title>
<path fill="none" stroke="black" d="M887.44,-349.41C878.03,-336.71 864.58,-318.56 853.79,-304.01"/>
<polygon fill="black" stroke="black" points="856.25,-302.44 847.48,-296.49 850.62,-306.61 856.25,-302.44"/>
<text text-anchor="middle" x="875.5" y="-318.8" font-family="Times,serif" font-size="14.00">0</text>
</g>
<!-- 71 -->
<g id="node72" class="node">
<title>71</title>
<ellipse fill="none" stroke="black" cx="908" cy="-279" rx="27" ry="18"/>
<text text-anchor="middle" x="908" y="-275.3" font-family="Times,serif" font-size="14.00">5</text>
</g>
<!-- 69&#45;&gt;71 -->
<g id="edge67" class="edge">
<title>69&#45;&gt;71</title>
<path fill="none" stroke="black" d="M900.82,-347.8C902.03,-336.39 903.64,-321.16 905.03,-308.03"/>
<polygon fill="black" stroke="black" points="908.61,-308.49 906.18,-298.18 901.65,-307.75 908.61,-308.49"/>
<text text-anchor="middle" x="908.5" y="-318.8" font-family="Times,serif" font-size="14.00">1</text>
</g>
<!-- 72 -->
<g id="node73" class="node">
<title>72</title>
<ellipse fill="none" stroke="black" cx="872" cy="-192" rx="27" ry="18"/>
<text text-anchor="middle" x="872" y="-188.3" font-family="Times,serif" font-size="14.00">3 v</text>
</g>
<!-- 71&#45;&gt;72 -->
<g id="edge65" class="edge">
<title>71&#45;&gt;72</title>
<path fill="none" stroke="black" d="M900.89,-261.21C895.86,-249.33 889.01,-233.17 883.25,-219.56"/>
<polygon fill="black" stroke="black" points="886.22,-218.6 879.1,-210.76 879.77,-221.33 886.22,-218.6"/>
<text text-anchor="middle" x="896.5" y="-231.8" font-family="Times,serif" font-size="14.00">0</text>
</g>
<!-- 73 -->
<g id="node74" class="node">
<title>73</title>
<ellipse fill="none" stroke="black" cx="944" cy="-192" rx="27" ry="18"/>
<text text-anchor="middle" x="944" y="-188.3" font-family="Times,serif" font-size="14.00">2 W</text>
</g>
<!-- 71&#45;&gt;73 -->
<g id="edge66" class="edge">
<title>71&#45;&gt;73</title>
<path fill="none" stroke="black" d="M915.11,-261.21C920.14,-249.33 926.99,-233.17 932.75,-219.56"/>
<polygon fill="black" stroke="black" points="936.23,-221.33 936.9,-210.76 929.78,-218.6 936.23,-221.33"/>
<text text-anchor="middle" x="932.5" y="-231.8" font-family="Times,serif" font-size="14.00">1</text>
</g>
<!-- 75 -->
<g id="node76" class="node">
<title>75</title>
<ellipse fill="none" stroke="black" cx="910" cy="-540" rx="27" ry="18"/>
<text text-anchor="middle" x="910" y="-536.3" font-family="Times,serif" font-size="14.00">39 a</text>
</g>
<!-- 74&#45;&gt;75 -->
<g id="edge72" class="edge">
<title>74&#45;&gt;75</title>
<path fill="none" stroke="black" d="M910,-608.8C910,-597.47 910,-582.36 910,-569.29"/>
<polygon fill="black" stroke="black" points="913.5,-569.47 910,-559.47 906.5,-569.47 913.5,-569.47"/>
<text text-anchor="middle" x="913.5" y="-579.8" font-family="Times,serif" font-size="14.00">0</text>
</g>
<!-- 76 -->
<g id="node77" class="node">
<title>76</title>
<ellipse fill="none" stroke="black" cx="982" cy="-540" rx="27" ry="18"/>
<text text-anchor="middle" x="982" y="-536.3" font-family="Times,serif" font-size="14.00">38 n</text>
</g>
<!-- 74&#45;&gt;76 -->
<g id="edge73" class="edge">
<title>74&#45;&gt;76</title>
<path fill="none" stroke="black" d="M922.87,-610.8C933.83,-597.87 949.74,-579.09 962.3,-564.26"/>
<polygon fill="black" stroke="black" points="965.45,-566.96 969.24,-557.06 960.11,-562.43 965.45,-566.96"/>
<text text-anchor="middle" x="954.5" y="-579.8" font-family="Times,serif" font-size="14.00">1</text>
</g>
</g>
</svg>
